<?xml version="1.0"?>
<svg xmlns="http://www.w3.org/2000/svg" xmlns:xlink="http://www.w3.org/1999/xlink" xmlns:svgjs="http://svgjs.com/svgjs" version="1.1" width="56" height="56" x="0" y="0" viewBox="0 0 483 483.59967" style="enable-background:new 0 0 512 512" xml:space="preserve" class=""><g><path xmlns="http://www.w3.org/2000/svg" d="m323.6875 8c24.511719 0 44.382812 19.871094 44.382812 44.378906 0 24.511719-19.871093 44.378906-44.382812 44.378906-24.507812 0-44.378906-19.867187-44.378906-44.378906-.003906-24.511718 19.867187-44.382812 44.378906-44.378906zm0 0" fill="#ff803f" data-original="#00acea" style="" class=""/><path xmlns="http://www.w3.org/2000/svg" d="m278.878906 251.929688c0-16.648438 12.589844-30.140626 28.128906-30.140626h.621094c15.511719 0 28.089844 13.441407 28.128906 30.050782.132813 54.351562.050782 59.691406-.027343 140.859375-.042969 45.582031-34.542969 82.5-77.089844 82.5h-91.351563c-27.960937 0-53.730468-16.21875-67.339843-42.371094l-81.449219-156.476563 8.507812-7.0625c17.621094-16.1875 44.109376-14.199218 59.449219 4.46875l22.792969 27.742188.128906-190.898438c.019532-16.632812 12.609375-30.113281 28.128906-30.113281h.011719c15.539063 0 28.128907 13.492188 28.128907 30.132813v115.539062c.371093-16.289062 12.820312-29.351562 28.109374-29.351562h.660157c15.539062 0 28.128906 13.492187 28.128906 30.132812v9.699219c0-16.640625 12.601563-30.132813 28.132813-30.132813h.070312c15.527344 0 28.128906 13.492188 28.128906 30.132813zm0 0" fill="#ffffff" data-original="#f7caa5" style="" class=""/><g xmlns="http://www.w3.org/2000/svg" fill="#083863"><path d="m137.332031 72.488281c-19.898437 0-36.015625 17.09375-36.039062 38.105469l-.074219 168.585938-8.597656-10.5c-8.53125-10.625-21.09375-17.230469-34.683594-18.226563-13.3125-.914063-26.414062 3.71875-36.191406 12.800781l-8.355469 6.9375c-2.898437 2.40625-3.726563 6.507813-1.988281 9.847656l81.453125 156.679688c14.980469 28.796875 43.503906 46.882812 74.433593 46.882812h91.351563c46.875 0 85.042969-40.800781 85.089844-90.695312.019531-21.597656.039062-37.929688.058593-51.144531.046876-36.339844.066407-50.085938-.03125-89.984375-.050781-20.972656-16.257812-38.175782-36.128906-38.175782h-.621094c-8.382812.054688-16.46875 3.125-22.773437 8.652344-5.371094-13.964844-18.367187-23.792968-33.554687-23.792968-9.191407.003906-18.011719 3.636718-24.542969 10.101562-6.136719-11.835938-18.054688-19.960938-31.71875-19.960938h-.660157c-7.320312.101563-14.445312 2.386719-20.460937 6.5625v-84.542968c0-21.019532-16.03125-38.132813-35.964844-38.132813zm56.425781 132.113281h.660157c11.101562 0 19.878906 10.136719 19.878906 22.339844v45.039063c0 4.417969 3.582031 8 8 8 4.421875 0 8-3.582031 8-8v-35.339844c0-12.199219 9.367187-22.132813 20.535156-22.132813 11.101563 0 20.464844 9.929688 20.464844 22.132813v33.339844c0 4.417969 3.582031 8 8 8 4.421875 0 8-3.582031 8-8v-18.050781c0-12.207032 8.613281-22.328126 19.710937-22.328126h.621094c11.070313 0 20.101563 10 20.128906 22.160157.101563 39.871093.078126 53.511719.03125 89.832031-.015624 13.214844-.039062 29.671875-.058593 51.273438-.039063 41.085937-31.03125 74.734374-69.089844 74.734374h-91.351563c-24.941406 0-48.023437-14.785156-60.246093-38.265624l-78.464844-150.851563 3.539063-2.988281c.097656-.085938.199218-.199219.304687-.289063 6.566406-6.183593 15.40625-9.363281 24.40625-8.777343 9.199219.707031 17.695313 5.203124 23.449219 12.414062l22.789062 27.738281c2.144532 2.609375 5.699219 3.589844 8.878906 2.453125 3.179688-1.140625 5.300782-4.152344 5.304688-7.53125l.128906-190.898437c.015625-12.199219 8.871094-22.121094 19.964844-22.121094s19.953125 9.933594 19.953125 22.136719v115.453125c0 .285156-.019531.566406-.019531.855469 0 .132812.019531.265624.019531.398437v49.339844c0 4.421875 3.582031 8 8 8 4.421875 0 8-3.578125 8-8v-50.355469c1-11.859375 9.652344-21.710938 20.460937-21.710938zm0 0" fill="#2e425a" data-original="#083863" style="" class=""/><path d="m4.746094 58.757812 38.5 38.5c3.121094 3.125 8.1875 3.125 11.3125 0s3.125-8.1875 0-11.3125l-26.347656-26.34375h243.609374c3.773438 27.105469 27.785157 46.738282 55.101563 45.050782 27.320313-1.6875 48.730469-24.125 49.140625-51.492188.414062-27.367187-20.316406-50.433594-47.574219-52.941406-27.253906-2.503906-51.84375 16.398438-56.429687 43.382812h-242.285156l24.78125-24.785156c3.125-3.125 3.125-8.191406.003906-11.316406-3.125-3.125-8.191406-3.125-11.316406 0l-36.207032 36.207031c-3.433594.546875-6.121094 3.25-6.644531 6.691407-.523437 3.4375 1.238281 6.816406 4.355469 8.359374zm318.941406-42.757812c20.09375 0 36.382812 16.289062 36.382812 36.378906 0 20.09375-16.289062 36.378906-36.382812 36.378906-20.089844 0-36.378906-16.285156-36.378906-36.378906.019531-20.082031 16.296875-36.359375 36.378906-36.378906zm0 0" fill="#2e425a" data-original="#083863" style="" class=""/></g></g></svg>
