<?xml version="1.0"?>
<svg xmlns="http://www.w3.org/2000/svg" xmlns:xlink="http://www.w3.org/1999/xlink" xmlns:svgjs="http://svgjs.com/svgjs" version="1.1" width="32" height="32" x="0" y="0" viewBox="0 0 512 512" style="enable-background:new 0 0 512 512" xml:space="preserve" class=""><g transform="matrix(1,0,0,1,0,0)"><g xmlns="http://www.w3.org/2000/svg"><g><path d="m168.959 394.427h174.082v75.314h-174.082z" fill="#f1cb66" data-original="#f1cb66" style="" class=""/><path d="m168.959 451.742h174.082v18h-174.082z" fill="#ebb059" data-original="#ebb059" style="" class=""/><path d="m343.041 394.427h-174.082v-24.605c0-5.331 4.322-9.653 9.653-9.653h154.775c5.331 0 9.653 4.322 9.653 9.653v24.605z" fill="#52769d" data-original="#9d7d52" style="" class=""/><path d="m168.959 376.427h174.082v18h-174.082z" fill="#495f8a" data-original="#8a6d49" style="" class=""/><path d="m333.387 504h-154.774c-5.331 0-9.653-4.322-9.653-9.653v-24.605h174.082v24.605c-.001 5.331-4.323 9.653-9.655 9.653z" fill="#52769d" data-original="#9d7d52" style="" class=""/><path d="m333.388 486h-154.776c-5.331 0-9.653-4.322-9.653-9.653v18c0 5.331 4.322 9.653 9.653 9.653h154.775c5.331 0 9.653-4.322 9.653-9.653v-18c.001 5.331-4.321 9.653-9.652 9.653z" fill="#495f8a" data-original="#8a6d49" style="" class=""/><path d="m61.712 215.727s-.13-207.727 194.288-207.727 194.288 207.727 194.288 207.727-21.442-29.835-64.763-29.835c-43.32 0-64.763 29.835-64.763 29.835s-21.442-29.834-64.762-29.834-64.763 29.835-64.763 29.835-21.442-29.835-64.762-29.835c-43.321 0-64.763 29.834-64.763 29.834z" fill="#557ac1" data-original="#c1b455" style="" class=""/><path d="m448.223 189.913c-6.218-5.738-27.005-22.021-62.698-22.021-33.541 0-53.967 14.388-61.479 20.884-1.891 1.635-4.676 1.635-6.566 0-7.513-6.496-27.938-20.884-61.48-20.884s-53.967 14.388-61.48 20.884c-1.891 1.635-4.676 1.635-6.566 0-7.513-6.496-27.938-20.884-61.479-20.884-35.455 0-56.284 16.069-62.683 21.908-2.085 15.79-2.08 25.927-2.08 25.927s21.442-29.835 64.763-29.835c43.32 0 64.762 29.835 64.762 29.835s21.442-29.835 64.763-29.835 64.763 29.835 64.763 29.835 21.442-29.835 64.763-29.835 64.763 29.835 64.763 29.835.004-10.088-2.066-25.814z" fill="#3657a7" data-original="#b2a34b" style="" class=""/></g><g><path d="m458.183 215.653c.001-1.237-.102-30.731-10.511-67.887-1.119-3.996-5.264-6.326-9.263-5.209-3.996 1.12-6.329 5.267-5.208 9.264 4.901 17.495 7.389 33.356 8.652 44.891-11.704-8.86-30.335-18.471-56.073-18.471-33.626 0-55.12 16.407-64.889 26.106-9.769-9.7-31.263-26.106-64.889-26.106-33.627 0-55.121 16.407-64.889 26.106-9.769-9.7-31.262-26.106-64.889-26.106-25.713 0-44.334 9.594-56.041 18.446 3.014-27.105 12.825-78.152 44.748-118.955 2.558-3.269 1.981-7.992-1.288-10.549s-7.992-1.981-10.549 1.288c-48.767 62.332-49.276 143.747-49.274 147.182 0 .024.007.048.008.072.025 2.267 1.063 4.496 3.023 5.954l176.448 131.18h-54.835c-9.477 0-17.187 7.71-17.187 17.187v124.768c0 9.477 7.71 17.187 17.187 17.187h91.086c4.151 0 7.515-3.365 7.515-7.515s-3.364-7.515-7.515-7.515h-91.086c-1.19 0-2.158-.968-2.158-2.158v-17.138h159.393v17.138c0 1.19-.968 2.158-2.158 2.158h-33.934c-4.151 0-7.515 3.365-7.515 7.515s3.364 7.515 7.515 7.515h33.934c9.477 0 17.187-7.71 17.187-17.187v-124.768c0-9.477-7.71-17.187-17.187-17.187h-54.836l176.448-131.18c1.959-1.456 2.997-3.684 3.023-5.949 0-.026.007-.052.007-.077zm-72.404-22.383c27.992 0 45.794 13.389 53.827 21.239l-164.956 122.634 52.74-117.626c2.914-3.676 22.288-26.247 58.389-26.247zm-129.779 0c31.062 0 49.57 16.481 56.11 23.59l-56.11 125.145-56.102-125.126c6.563-7.075 25.207-23.609 56.102-23.609zm-71.396 26.236 52.745 117.637-164.927-122.614c8.072-7.834 25.962-21.259 53.8-21.259 36.206 0 55.367 22.399 58.382 26.236zm-8.301 182.707h28.576v60.433h-28.576zm72.182 0v60.433h-28.576v-60.433zm43.606 0v60.433h-28.576v-60.433zm43.605 0v60.433h-28.576v-60.433zm0-32.167v17.138h-159.393v-17.138c0-1.19.968-2.158 2.158-2.158h155.078c1.19 0 2.157.968 2.157 2.158z" fill="#000000" data-original="#000000" style="" class=""/><path d="m134.526 56.742c30.952-27.678 71.822-41.713 121.474-41.713 45.709 0 84.048 11.911 113.952 35.404 23.388 18.374 41.733 43.815 54.521 75.615 3.565 9.132 17.7 3.356 13.943-5.608-22.095-54.944-71.679-120.44-182.416-120.44-53.461 0-97.702 15.321-131.493 45.538-3.093 2.767-3.359 7.517-.592 10.611 2.765 3.094 7.517 3.357 10.611.593z" fill="#000000" data-original="#000000" style="" class=""/></g></g></g></svg>
