<?xml version="1.0"?>
<svg xmlns="http://www.w3.org/2000/svg" xmlns:xlink="http://www.w3.org/1999/xlink" version="1.1" id="Layer_1" x="0px" y="0px" viewBox="0 0 512.001 512.001" style="enable-background:new 0 0 512.001 512.001;" xml:space="preserve" width="512px" height="512px" class=""><g><g>
	<g>
		<path d="M242.368,220.251c-10.593-19.396-30.902-31.445-53.003-31.445H12.699c-4.6,0-8.849,2.495-11.091,6.513    c-2.241,4.016-2.133,8.944,0.284,12.857l4.188,6.785c10.922,17.691,29.738,28.356,50.473,28.661l4.927,10.545    c8.488,18.163,24.158,29.444,40.896,29.444h12.033l2.913,9.21c6.016,19.019,17.333,30.374,30.271,30.374h89.616    c7.003,0,12.7-5.697,12.7-12.7v-60.693C249.911,239.507,247.303,229.289,242.368,220.251z M234.671,307.955h-87.076    c-5.682,0-12.009-7.929-15.742-19.729l-1.463-4.627h70.387c4.208,0,7.62-3.411,7.62-7.62c0-4.209-3.412-7.62-7.62-7.62h-80.76    c-0.079,0-0.156,0.009-0.236,0.012h-17.404c-10.919,0-21.045-7.723-27.089-20.656l-1.723-3.687H177.41    c4.208,0,7.62-3.411,7.62-7.62c0-4.209-3.412-7.62-7.62-7.62H61.96l-3.757-0.364c-0.245-0.023-0.49-0.036-0.736-0.036    c-15.771,0-30.134-8.013-38.419-21.433l-1.796-2.91h172.114c16.524,0,31.707,9.008,39.626,23.51    c3.715,6.803,5.678,14.497,5.678,22.246V307.955z" data-original="#000000" class="active-path" data-old_color="#000000" fill="#FFFFFF"/>
	</g>
</g><g>
	<g>
		<path d="M510.394,195.319c-2.241-4.017-6.491-6.513-11.092-6.513H441.28c-4.209,0-7.62,3.411-7.62,7.62    c0,4.209,3.411,7.62,7.62,7.62h53.47l-1.796,2.91c-8.285,13.42-22.648,21.433-38.419,21.433c-0.245,0-0.491,0.012-0.736,0.036    l-3.757,0.364h-115.45c-4.209,0-7.62,3.411-7.62,7.62s3.411,7.62,7.62,7.62h103.844l-1.723,3.687    c-6.044,12.934-16.17,20.656-27.088,20.656H392.22c-0.079-0.002-0.156-0.012-0.236-0.012h-80.759c-4.209,0-7.62,3.411-7.62,7.62    s3.411,7.62,7.62,7.62h70.386l-1.463,4.627c-3.733,11.801-10.058,19.729-15.742,19.729h-87.075v-58.153    c0-7.751,1.964-15.444,5.678-22.246c7.92-14.501,23.102-23.51,39.626-23.51h69.348c4.209,0,7.62-3.411,7.62-7.62    s-3.411-7.62-7.62-7.62h-69.348c-22.101,0-42.409,12.049-53.001,31.445c-4.935,9.037-7.544,19.255-7.544,29.551v60.693    c0,7.003,5.697,12.7,12.7,12.7h89.615c12.94,0,24.256-11.355,30.272-30.374l2.912-9.21h12.034    c16.738,0,32.408-11.281,40.895-29.443l4.929-10.546c20.735-0.305,39.551-10.97,50.473-28.661l4.188-6.784    C512.526,204.264,512.634,199.336,510.394,195.319z" data-original="#000000" class="active-path" data-old_color="#000000" fill="#FFFFFF"/>
	</g>
</g></g> </svg>
